<svg width="50" height="50" viewBox="0 0 50 50" fill="none" xmlns="http://www.w3.org/2000/svg">
<g clip-path="url(#clip0_302_22)">
<path fill-rule="evenodd" clip-rule="evenodd" d="M1.56262 18.75C1.32882 18.7501 1.09801 18.8027 0.887227 18.9038C0.676439 19.005 0.491038 19.1521 0.344691 19.3345C0.198343 19.5168 0.09478 19.7296 0.0416346 19.9573C-0.0115108 20.185 -0.0128835 20.4217 0.0376178 20.65L5.20012 43.8812C5.58546 45.6164 6.55097 47.1683 7.93725 48.2807C9.32352 49.3932 11.0477 49.9996 12.8251 50H30.9251C32.7025 49.9996 34.4267 49.3932 35.813 48.2807C37.1993 47.1683 38.1648 45.6164 38.5501 43.8812L38.9595 42.0375C41.3499 42.4846 43.8205 41.9853 45.8497 40.6451C47.8789 39.305 49.3079 37.2287 49.8351 34.8547C50.3623 32.4807 49.9464 29.9947 48.6752 27.9216C47.404 25.8485 45.3769 24.3505 43.022 23.7438L43.7126 20.65C43.7631 20.4217 43.7617 20.185 43.7086 19.9573C43.6555 19.7296 43.5519 19.5168 43.4055 19.3345C43.2592 19.1521 43.0738 19.005 42.863 18.9038C42.6522 18.8027 42.4214 18.7501 42.1876 18.75H1.56262ZM40.6251 39.0625C40.2944 39.0625 39.9642 39.0364 39.6376 38.9844L42.347 26.8031C43.7923 27.2217 45.0382 28.1475 45.8561 29.4105C46.674 30.6735 47.009 32.1891 46.7997 33.6791C46.5904 35.1692 45.8509 36.5339 44.7167 37.5227C43.5825 38.5115 42.1298 39.0582 40.6251 39.0625Z" fill="#B29463"/>
<path d="M13.75 2.49998L13.7406 2.51248L13.6969 2.57185C13.4701 2.88514 13.2574 3.20838 13.0594 3.5406C12.8946 3.8089 12.7474 4.08761 12.6188 4.37498C12.5375 4.56248 12.5125 4.66248 12.5031 4.69685V4.70935C12.5384 4.98578 12.6356 5.25069 12.7875 5.48435C13.0219 5.89998 13.3438 6.33435 13.75 6.87498L13.7812 6.91248C14.15 7.40623 14.5938 7.99685 14.9375 8.60935C15.2875 9.23435 15.625 10.0312 15.625 10.9375C15.625 11.525 15.4219 12.0875 15.2531 12.4812C15.0697 12.8989 14.8588 13.3039 14.6219 13.6937C14.3752 14.1026 14.1114 14.5008 13.8313 14.8875L13.775 14.9656L13.7594 14.9906L13.7531 14.9969C13.5049 15.3288 13.135 15.5485 12.7247 15.6077C12.3145 15.6669 11.8976 15.5607 11.5656 15.3125C11.2337 15.0643 11.014 14.6943 10.9548 14.2841C10.8956 13.8739 11.0018 13.4569 11.25 13.125L11.2594 13.1125L11.3031 13.0531C11.53 12.7399 11.7427 12.4166 11.9406 12.0844C12.1077 11.8174 12.255 11.5385 12.3812 11.25C12.4625 11.0625 12.4875 10.9625 12.4969 10.9281C12.4643 10.6476 12.3682 10.3782 12.2156 10.1406C11.9231 9.65738 11.6006 9.19293 11.25 8.74998L11.2187 8.71248C10.7973 8.1723 10.411 7.6055 10.0625 7.0156C9.63686 6.31163 9.40007 5.50974 9.375 4.68748C9.375 4.09998 9.57812 3.53748 9.74687 3.14373C9.93125 2.71248 10.1656 2.28748 10.3781 1.93123C10.6248 1.5224 10.8886 1.12413 11.1687 0.737479L11.2469 0.628104C11.4951 0.296169 11.865 0.0764363 12.2753 0.0172451C12.6855 -0.0419461 13.1024 0.0642526 13.4344 0.312479C13.7663 0.560705 13.986 0.930625 14.0452 1.34086C14.1044 1.7511 13.9982 2.16804 13.75 2.49998ZM23.125 2.49998L23.1156 2.51248L23.0719 2.57185C22.8451 2.88514 22.6324 3.20838 22.4344 3.5406C22.2696 3.8089 22.1224 4.08761 21.9938 4.37498C21.9125 4.56248 21.8875 4.66248 21.8781 4.69685V4.70935C21.9134 4.98578 22.0106 5.25069 22.1625 5.48435C22.3969 5.89998 22.7188 6.33435 23.125 6.87498L23.1562 6.91248C23.525 7.40623 23.9688 7.99685 24.3125 8.60935C24.6625 9.23435 25 10.0312 25 10.9375C25 11.525 24.7969 12.0875 24.6281 12.4812C24.4447 12.8989 24.2338 13.3039 23.9969 13.6937C23.7502 14.1026 23.4864 14.5008 23.2063 14.8875L23.15 14.9656L23.1344 14.9906L23.1281 14.9969C22.8799 15.3288 22.51 15.5485 22.0997 15.6077C21.6895 15.6669 21.2726 15.5607 20.9406 15.3125C20.6087 15.0643 20.389 14.6943 20.3298 14.2841C20.2706 13.8739 20.3768 13.4569 20.625 13.125L20.6344 13.1125L20.6781 13.0531C20.905 12.7399 21.1177 12.4166 21.3156 12.0844C21.4827 11.8174 21.63 11.5385 21.7562 11.25C21.8375 11.0625 21.8625 10.9625 21.8719 10.9281C21.8393 10.6476 21.7432 10.3782 21.5906 10.1406C21.2981 9.65738 20.9756 9.19293 20.625 8.74998L20.5938 8.71248C20.1723 8.1723 19.786 7.6055 19.4375 7.0156C19.0119 6.31163 18.7751 5.50974 18.75 4.68748C18.75 4.09998 18.9531 3.53748 19.1219 3.14373C19.3062 2.71248 19.5406 2.28748 19.7531 1.93123C19.9998 1.5224 20.2636 1.12413 20.5437 0.737479L20.6219 0.628104C20.8701 0.296169 21.24 0.0764362 21.6503 0.0172451C22.0605 -0.0419461 22.4774 0.0642526 22.8094 0.312479C23.1413 0.560705 23.361 0.930625 23.4202 1.34086C23.4794 1.7511 23.3732 2.16804 23.125 2.49998ZM32.5 2.49998L32.4906 2.51248L32.4469 2.57185C32.2198 2.88493 32.0071 3.20818 31.8094 3.5406C31.6447 3.80894 31.4975 4.08765 31.3687 4.37498C31.2875 4.56248 31.2625 4.66248 31.2531 4.69685V4.70935C31.2884 4.98578 31.3856 5.25069 31.5375 5.48435C31.7719 5.89998 32.0937 6.33435 32.5 6.87498L32.5312 6.91248C32.9 7.40623 33.3438 7.99685 33.6875 8.60935C34.0375 9.23435 34.375 10.0312 34.375 10.9375C34.375 11.525 34.1719 12.0875 34.0031 12.4812C33.8206 12.8993 33.6097 13.3044 33.3719 13.6937C33.1264 14.1026 32.8637 14.5009 32.5844 14.8875L32.525 14.9656L32.5094 14.9906L32.5031 14.9969C32.2549 15.3288 31.885 15.5485 31.4747 15.6077C31.0645 15.6669 30.6476 15.5607 30.3156 15.3125C29.9837 15.0643 29.764 14.6943 29.7048 14.2841C29.6456 13.8739 29.7518 13.4569 30 13.125L30.0094 13.1125L30.0531 13.0531C30.28 12.7399 30.4927 12.4166 30.6906 12.0844C30.8577 11.8174 31.005 11.5385 31.1313 11.25C31.2125 11.0625 31.2375 10.9625 31.2469 10.9281C31.2143 10.6476 31.1182 10.3782 30.9656 10.1406C30.6731 9.65738 30.3506 9.19293 30 8.74998L29.9688 8.71248C29.5473 8.1723 29.161 7.6055 28.8125 7.0156C28.3869 6.31163 28.1501 5.50974 28.125 4.68748C28.125 4.09998 28.3281 3.53748 28.4969 3.14373C28.6813 2.71248 28.9156 2.28748 29.1281 1.93123C29.3748 1.5224 29.6386 1.12413 29.9188 0.737479L29.9969 0.628104C30.2451 0.296169 30.615 0.0764362 31.0253 0.0172451C31.4355 -0.0419461 31.8524 0.0642526 32.1844 0.312479C32.5163 0.560705 32.736 0.930625 32.7952 1.34086C32.8544 1.7511 32.7482 2.16804 32.5 2.49998Z" fill="#B29463"/>
</g>
<defs>
<clipPath id="clip0_302_22">
<rect width="50" height="50" fill="white"/>
</clipPath>
</defs>
</svg>
